<?xml version="1.0" encoding="UTF-8"?><svg id="Layer_2" xmlns="http://www.w3.org/2000/svg" viewBox="0 0 1440.05 311.84"><defs><style>.cls-1{fill:#fff;stroke-width:0px;}</style></defs><g id="Layer_1-2"><path class="cls-1" d="M62.93,170.22c8.02,44.21,46.71,77.73,93.23,77.73,52.33,0,94.75-42.42,94.75-94.75,0-5.41-.46-10.72-1.33-15.89l62.93-11.09c1.5,8.77,2.3,17.78,2.3,26.98,0,87.62-71.03,158.65-158.65,158.65C78.14,311.84,13.27,255.52,0,181.31l62.93-11.1Z"/><path class="cls-1" d="M521.74,107.88c-3.22,5.2-6.77,9.93-10.66,14.18-3.89,4.25-8.24,7.87-13.07,10.85-4.83,2.98-10.19,5.3-16.07,6.96-5.89,1.65-12.38,2.48-19.49,2.48-8.88,0-17.21-1.67-24.98-5-7.77-3.33-14.57-7.83-20.4-13.49-5.83-5.66-10.41-12.33-13.74-19.99-3.33-7.66-4.99-15.82-4.99-24.48s1.67-16.82,4.99-24.48c3.33-7.66,7.91-14.32,13.74-19.99,5.83-5.66,12.63-10.16,20.4-13.49,7.77-3.33,16.1-5,24.98-5,7.33,0,13.93.83,19.82,2.5,5.88,1.67,11.21,4,15.99,7,4.77,3,9.08,6.64,12.91,10.91,3.83,4.28,7.35,8.97,10.58,14.07.55.89.67,1.83.33,2.83-.33,1-1,1.72-2,2.17l-23.65,9.33c-1.11.44-2.22.44-3.33,0-1.11-.44-1.94-1.11-2.5-2-3.22-5.11-7.11-9.02-11.66-11.74-4.55-2.72-10.05-4.08-16.49-4.08-4.22,0-8.19.89-11.91,2.67-3.72,1.78-6.97,4.15-9.74,7.1-2.78,2.95-4.94,6.37-6.5,10.27-1.56,3.9-2.33,7.91-2.33,12.02s.77,8.27,2.33,12.11c1.55,3.84,3.72,7.21,6.5,10.11,2.77,2.89,6.02,5.23,9.74,7.01,3.72,1.78,7.69,2.67,11.91,2.67,6.11,0,11.63-1.47,16.57-4.41,4.94-2.94,8.85-6.75,11.74-11.41.55-.89,1.36-1.55,2.41-2,1.05-.44,2.14-.44,3.25,0l23.65,9.33c1,.44,1.67,1.14,2,2.08.33.95.22,1.92-.33,2.92"/><path class="cls-1" d="M524.74,79.23c0-8.66,1.67-16.82,5-24.48,3.33-7.66,7.83-14.35,13.49-20.07,5.66-5.72,12.33-10.24,19.99-13.58,7.66-3.33,15.82-5,24.48-5s16.82,1.67,24.48,5c7.66,3.33,14.35,7.86,20.07,13.58,5.72,5.72,10.24,12.41,13.58,20.07,3.33,7.66,5,15.82,5,24.48s-1.67,16.82-5,24.48c-3.33,7.66-7.86,14.35-13.58,20.07s-12.41,10.24-20.07,13.57c-7.66,3.33-15.82,5-24.48,5s-16.82-1.67-24.48-5c-7.66-3.33-14.32-7.85-19.99-13.57-5.66-5.72-10.16-12.41-13.49-20.07-3.33-7.66-5-15.82-5-24.48M557.72,79.23c0,4.22.78,8.22,2.33,11.99,1.55,3.78,3.69,7.11,6.41,9.99,2.72,2.89,5.91,5.19,9.58,6.91,3.66,1.72,7.55,2.58,11.66,2.58s7.99-.86,11.66-2.58c3.66-1.72,6.88-4.02,9.66-6.91,2.77-2.88,4.94-6.22,6.5-9.99,1.55-3.77,2.33-7.77,2.33-11.99s-.78-8.08-2.33-11.91c-1.56-3.83-3.72-7.16-6.5-9.99-2.78-2.83-6-5.11-9.66-6.83-3.66-1.72-7.55-2.58-11.66-2.58s-7.99.86-11.66,2.58c-3.66,1.72-6.86,4-9.58,6.83-2.72,2.83-4.86,6.16-6.41,9.99-1.56,3.83-2.33,7.8-2.33,11.91"/><path class="cls-1" d="M778.4,22.27v113.92c0,1.11-.39,2.06-1.16,2.83-.78.78-1.72,1.17-2.83,1.17h-24.6c-1.11,0-2.27-.33-3.49-1-1.22-.67-2.16-1.44-2.83-2.33l-43.38-61.13c-.67-.89-1.36-1.25-2.08-1.08-.72.17-1.08.81-1.08,1.92v59.63c0,1.11-.39,2.06-1.18,2.83-.78.78-1.73,1.17-2.84,1.17h-24.94c-1.12,0-2.07-.39-2.85-1.17-.78-.78-1.17-1.72-1.17-2.83V22.27c0-1.11.39-2.05,1.17-2.83.77-.78,1.72-1.17,2.83-1.17h24.98c1.11,0,2.27.31,3.5.92,1.22.61,2.17,1.36,2.83,2.25l43.3,61.13c.67.89,1.36,1.28,2.08,1.17.72-.11,1.08-.72,1.08-1.83V22.27c0-1.11.39-2.05,1.17-2.83s1.72-1.17,2.83-1.17h24.65c1.11,0,2.05.39,2.83,1.17.78.78,1.17,1.72,1.17,2.83"/><path class="cls-1" d="M813.04,98.38c6,3.89,11.94,6.94,17.82,9.16,5.88,2.22,11.38,3.33,16.49,3.33s8.6-.69,11.16-2.08c2.55-1.39,3.83-3.47,3.83-6.24,0-1.44-.56-2.58-1.67-3.41-1.11-.83-2.58-1.53-4.41-2.08-1.83-.55-3.97-1-6.41-1.33-2.44-.33-4.94-.78-7.49-1.33-2.44-.44-5.3-.97-8.58-1.58-3.28-.61-6.64-1.5-10.08-2.66-3.44-1.17-6.86-2.64-10.24-4.41-3.39-1.77-6.41-4.05-9.08-6.83-2.66-2.77-4.8-6.08-6.41-9.91-1.61-3.83-2.42-8.36-2.42-13.58,0-7.66,1.5-13.99,4.5-18.99s6.8-8.96,11.41-11.91c4.6-2.94,9.74-5,15.41-6.16,5.66-1.17,11.16-1.75,16.49-1.75,9.33,0,17.68,1.36,25.07,4.08,7.38,2.72,14.46,6.69,21.24,11.91.89.78,1.39,1.72,1.5,2.83.11,1.11-.17,2.11-.83,3l-12.99,18.49c-.67.89-1.56,1.44-2.66,1.67-1.11.22-2.11,0-3-.67-5.66-3.55-10.94-6.08-15.82-7.58-4.89-1.5-9.38-2.25-13.49-2.25-1.22,0-2.64.03-4.25.08-1.61.06-3.14.28-4.58.67-1.44.39-2.64,1.03-3.58,1.91-.94.89-1.41,2.11-1.41,3.67s1.17,2.94,3.5,4.16c2.33,1.22,5,2.28,7.99,3.16,3,.89,5.88,1.58,8.66,2.08,2.77.5,4.55.81,5.33.92,4,.78,8.38,1.92,13.16,3.42,4.77,1.5,9.24,3.72,13.41,6.66,4.16,2.94,7.66,6.77,10.49,11.49,2.83,4.72,4.25,10.63,4.25,17.74,0,6.66-1.17,12.41-3.5,17.24-2.33,4.83-5.58,8.8-9.74,11.91-4.16,3.11-9.16,5.41-14.99,6.91-5.83,1.5-12.3,2.25-19.4,2.25-5.77,0-11.16-.47-16.16-1.41-5-.94-9.66-2.25-13.99-3.92-4.33-1.67-8.36-3.63-12.07-5.91-3.72-2.27-7.14-4.69-10.24-7.25-.89-.67-1.39-1.58-1.5-2.75-.11-1.17.17-2.19.83-3.08l12.82-18.49c.67-.89,1.55-1.44,2.66-1.67,1.11-.22,2.11-.05,3,.5"/><path class="cls-1" d="M908.31,22.43c0-1.11.39-2.05,1.16-2.83.77-.78,1.71-1.17,2.82-1.17h25.02c1.11,0,2.04.39,2.82,1.17.77.78,1.16,1.72,1.16,2.83v67.46c0,4.33.7,7.91,2.09,10.74,1.4,2.83,3.12,5.05,5.18,6.66,2.06,1.61,4.27,2.75,6.61,3.41,2.34.67,4.46,1,6.35,1s4.01-.33,6.35-1c2.34-.67,4.52-1.8,6.52-3.41,2.01-1.61,3.71-3.83,5.1-6.66,1.39-2.83,2.09-6.41,2.09-10.74V22.43c0-1.11.39-2.05,1.16-2.83.77-.78,1.71-1.17,2.82-1.17h25.02c1.1,0,2.04.39,2.82,1.17.77.78,1.16,1.72,1.16,2.83v67.46c0,7.88-1.25,15.05-3.74,21.49-2.49,6.44-6.07,11.94-10.72,16.49-4.66,4.55-10.26,8.08-16.8,10.58-6.54,2.5-13.8,3.75-21.79,3.75s-15.24-1.25-21.78-3.75c-6.54-2.5-12.14-6.02-16.8-10.58-4.66-4.55-8.26-10.05-10.81-16.49-2.55-6.44-3.82-13.6-3.82-21.49V22.43Z"/><path class="cls-1" d="M1167.38,22.43v113.76c0,1.11-.39,2.06-1.16,2.83-.77.78-1.71,1.17-2.82,1.17h-25.02c-1.11,0-2.05-.39-2.82-1.17-.77-.78-1.16-1.72-1.16-2.83v-53.63c0-1.11-.5-1.72-1.5-1.83-1-.11-1.84.28-2.5,1.17l-28.05,45.14c-.56.89-1.45,1.33-2.67,1.33s-2.17-.44-2.84-1.33l-28.05-45.14c-.56-.89-1.34-1.28-2.34-1.17-1,.11-1.5.72-1.5,1.83v53.63c0,1.11-.39,2.06-1.16,2.83-.77.78-1.71,1.17-2.82,1.17h-25.02c-1.11,0-2.05-.39-2.82-1.17-.77-.78-1.16-1.72-1.16-2.83V22.43c0-1.11.38-2.05,1.16-2.83.77-.78,1.71-1.17,2.82-1.17h23.2c1.1,0,2.26.33,3.48,1,1.22.67,2.1,1.44,2.65,2.33l32.06,46.97c.67.89,1.45,1.33,2.34,1.33s1.61-.44,2.17-1.33l32.06-46.97c.66-.89,1.6-1.67,2.82-2.33,1.21-.67,2.37-1,3.48-1h23.2c1.1,0,2.04.39,2.82,1.17.77.78,1.16,1.72,1.16,2.83"/><path class="cls-1" d="M1218.59,52.91v7c0,1.11.39,2.06,1.17,2.83.78.78,1.72,1.16,2.83,1.16h45.14c1.11,0,2.05.39,2.83,1.17.78.78,1.17,1.72,1.17,2.83v22.98c0,1.11-.39,2.06-1.17,2.83-.78.78-1.72,1.17-2.83,1.17h-45.14c-1.11,0-2.06.39-2.83,1.17-.78.78-1.17,1.72-1.17,2.83v6.33c0,1.11.39,2.06,1.17,2.83.78.78,1.72,1.17,2.83,1.17h51.8c1.11,0,2.05.39,2.83,1.17.77.78,1.17,1.72,1.17,2.83v22.98c0,1.11-.39,2.06-1.17,2.83-.78.78-1.72,1.17-2.83,1.17h-84.78c-1.11,0-2.06-.39-2.83-1.17-.78-.77-1.17-1.72-1.17-2.83V22.27c0-1.11.39-2.05,1.17-2.83.78-.77,1.72-1.17,2.83-1.17h84.78c1.11,0,2.05.39,2.83,1.17.77.78,1.17,1.72,1.17,2.83v22.65c0,1.11-.39,2.06-1.17,2.83-.78.78-1.72,1.17-2.83,1.17h-51.8c-1.11,0-2.06.39-2.83,1.17-.78.78-1.17,1.72-1.17,2.83"/><path class="cls-1" d="M1324.5,140.19h-24.94c-1.12,0-2.07-.39-2.85-1.17-.78-.77-1.17-1.72-1.17-2.83V22.27c0-1.11.39-2.05,1.17-2.83.77-.78,1.72-1.17,2.83-1.17h51.8c6.44,0,12.38,1.08,17.82,3.25,5.44,2.17,10.08,5.19,13.91,9.08,3.83,3.89,6.83,8.49,8.99,13.82s3.25,11.22,3.25,17.65c0,3.55-.42,7.08-1.25,10.58-.83,3.5-2.03,6.8-3.58,9.91-1.56,3.11-3.39,5.91-5.5,8.41-2.11,2.5-4.5,4.58-7.16,6.24-.89.67-1.47,1.47-1.75,2.41-.28.95-.08,1.86.58,2.75,4.22,5.55,8.66,11.27,13.32,17.16,4.66,5.89,8.83,11.27,12.49,16.16.67.89.83,1.86.5,2.91-.33,1.06-1.06,1.58-2.17,1.58h-30.98c-1.11,0-2.3-.31-3.58-.92-1.28-.61-2.25-1.36-2.92-2.25-3.54-4.66-7.04-9.38-10.53-14.16-3.48-4.77-6.93-9.6-10.36-14.49-.66-.89-1.6-1.64-2.82-2.25-1.22-.61-2.38-.92-3.48-.92h-3.65c-1.11,0-2.05.39-2.82,1.17-.78.78-1.16,1.72-1.16,2.83v26.98c0,1.11-.39,2.06-1.17,2.83-.78.78-1.73,1.17-2.85,1.17M1332.49,74.56h17.57c1.32,0,2.71-.25,4.14-.75,1.44-.5,2.76-1.28,3.98-2.33,1.21-1.05,2.21-2.36,2.98-3.91.77-1.55,1.16-3.39,1.16-5.5,0-1.11-.2-2.41-.58-3.92-.39-1.5-1.05-2.94-1.99-4.33-.94-1.39-2.21-2.55-3.81-3.5-1.6-.94-3.56-1.41-5.88-1.41h-17.57c-1.1,0-2.04.39-2.82,1.17-.78.78-1.16,1.72-1.16,2.83v17.65c0,1.11.38,2.06,1.16,2.83.77.78,1.71,1.17,2.82,1.17"/><path class="cls-1" d="M521.74,255.82c-3.22,5.2-6.77,9.93-10.66,14.18-3.89,4.25-8.24,7.87-13.07,10.85-4.83,2.98-10.19,5.3-16.07,6.96-5.89,1.65-12.38,2.48-19.49,2.48-8.88,0-17.21-1.67-24.98-5-7.77-3.33-14.57-7.83-20.4-13.49-5.83-5.66-10.41-12.33-13.74-19.99-3.33-7.66-4.99-15.82-4.99-24.48s1.67-16.82,4.99-24.48c3.33-7.66,7.91-14.32,13.74-19.99,5.83-5.66,12.63-10.16,20.4-13.49,7.77-3.33,16.1-5,24.98-5,7.33,0,13.93.83,19.82,2.5,5.88,1.67,11.21,4,15.99,7,4.77,3,9.08,6.64,12.91,10.91,3.83,4.28,7.35,8.97,10.58,14.07.55.89.67,1.83.33,2.83-.33,1-1,1.72-2,2.17l-23.65,9.33c-1.11.44-2.22.44-3.33,0-1.11-.44-1.94-1.11-2.5-2-3.22-5.11-7.11-9.02-11.66-11.74-4.55-2.72-10.05-4.08-16.49-4.08-4.22,0-8.19.89-11.91,2.67-3.72,1.78-6.97,4.15-9.74,7.1-2.78,2.95-4.94,6.37-6.5,10.27-1.56,3.9-2.33,7.91-2.33,12.02s.77,8.27,2.33,12.11c1.55,3.84,3.72,7.21,6.5,10.11,2.77,2.89,6.02,5.23,9.74,7.01,3.72,1.78,7.69,2.67,11.91,2.67,6.11,0,11.63-1.47,16.57-4.41,4.94-2.94,8.85-6.75,11.74-11.41.55-.89,1.36-1.55,2.41-2,1.05-.44,2.14-.44,3.25,0l23.65,9.33c1,.44,1.67,1.14,2,2.08.33.95.22,1.92-.33,2.92"/><path class="cls-1" d="M961.29,255.82c-3.22,5.2-6.77,9.93-10.66,14.18-3.89,4.25-8.24,7.87-13.07,10.85-4.83,2.98-10.19,5.3-16.07,6.96-5.89,1.65-12.38,2.48-19.49,2.48-8.88,0-17.21-1.67-24.98-5-7.77-3.33-14.57-7.83-20.4-13.49-5.83-5.66-10.41-12.33-13.74-19.99-3.33-7.66-4.99-15.82-4.99-24.48s1.67-16.82,4.99-24.48c3.33-7.66,7.91-14.32,13.74-19.99,5.83-5.66,12.63-10.16,20.4-13.49,7.77-3.33,16.1-5,24.98-5,7.33,0,13.93.83,19.82,2.5,5.88,1.67,11.21,4,15.99,7,4.77,3,9.08,6.64,12.91,10.91,3.83,4.28,7.35,8.97,10.58,14.07.55.89.67,1.83.33,2.83-.33,1-1,1.72-2,2.17l-23.65,9.33c-1.11.44-2.22.44-3.33,0-1.11-.44-1.94-1.11-2.5-2-3.22-5.11-7.11-9.02-11.66-11.74-4.55-2.72-10.05-4.08-16.49-4.08-4.22,0-8.19.89-11.91,2.67-3.72,1.78-6.97,4.15-9.74,7.1-2.78,2.95-4.94,6.37-6.5,10.27-1.56,3.9-2.33,7.91-2.33,12.02s.77,8.27,2.33,12.11c1.55,3.84,3.72,7.21,6.5,10.11,2.77,2.89,6.02,5.23,9.74,7.01,3.72,1.78,7.69,2.67,11.91,2.67,6.11,0,11.63-1.47,16.57-4.41,4.94-2.94,8.85-6.75,11.74-11.41.55-.89,1.36-1.55,2.41-2,1.05-.44,2.14-.44,3.25,0l23.65,9.33c1,.44,1.67,1.14,2,2.08.33.95.22,1.92-.33,2.92"/><path class="cls-1" d="M638.66,170.21v113.92c0,1.11-.39,2.06-1.17,2.83-.78.78-1.72,1.17-2.83,1.17h-24.98c-1.22,0-2.19-.39-2.91-1.17-.72-.78-1.08-1.72-1.08-2.83v-35.64c0-1.11-.39-2.05-1.16-2.83-.78-.78-1.71-1.17-2.82-1.17h-34.17c-1.22,0-2.19.39-2.91,1.17-.72.78-1.08,1.72-1.08,2.83v35.64c0,1.11-.39,2.06-1.18,2.83-.78.78-1.73,1.17-2.84,1.17h-24.94c-1.23,0-2.21-.39-2.93-1.17-.72-.78-1.09-1.72-1.09-2.83v-113.92c0-1.11.36-2.05,1.09-2.83.72-.78,1.7-1.17,2.93-1.17h24.94c1.11,0,2.06.39,2.84,1.16.78.77,1.18,1.71,1.18,2.82v39.33c0,1.11.36,2.05,1.08,2.83.72.77,1.69,1.16,2.91,1.16h34.17c1.11,0,2.05-.39,2.82-1.16.77-.78,1.16-1.72,1.16-2.83v-39.33c0-1.11.36-2.05,1.08-2.82.72-.78,1.69-1.16,2.91-1.16h24.98c1.11,0,2.05.39,2.83,1.17.78.78,1.17,1.72,1.17,2.83"/><path class="cls-1" d="M651.86,227.17c0-8.66,1.67-16.82,5-24.48,3.33-7.66,7.83-14.35,13.49-20.07,5.66-5.72,12.33-10.24,19.99-13.58,7.66-3.33,15.82-5,24.48-5s16.82,1.67,24.48,5c7.66,3.33,14.35,7.86,20.07,13.58,5.72,5.72,10.24,12.41,13.57,20.07,3.33,7.66,5,15.82,5,24.48s-1.67,16.82-5,24.48c-3.33,7.66-7.86,14.35-13.57,20.07-5.72,5.72-12.41,10.24-20.07,13.57-7.66,3.33-15.82,5-24.48,5s-16.82-1.67-24.48-5c-7.66-3.33-14.32-7.85-19.99-13.57-5.66-5.72-10.16-12.41-13.49-20.07-3.33-7.66-5-15.82-5-24.48M684.84,227.17c0,4.22.78,8.22,2.33,11.99,1.55,3.78,3.69,7.11,6.41,9.99,2.72,2.89,5.91,5.19,9.58,6.91,3.66,1.72,7.55,2.58,11.66,2.58s7.99-.86,11.66-2.58c3.66-1.72,6.88-4.02,9.66-6.91,2.77-2.88,4.94-6.22,6.5-9.99,1.55-3.77,2.33-7.77,2.33-11.99s-.78-8.08-2.33-11.91c-1.56-3.83-3.72-7.16-6.5-9.99-2.78-2.83-6-5.11-9.66-6.83-3.66-1.72-7.55-2.58-11.66-2.58s-7.99.86-11.66,2.58c-3.66,1.72-6.86,4-9.58,6.83-2.72,2.83-4.86,6.16-6.41,9.99-1.56,3.83-2.33,7.8-2.33,11.91"/><path class="cls-1" d="M821.26,288.13h-25.02c-1.21,0-2.18-.39-2.9-1.17-.72-.77-1.08-1.72-1.08-2.83v-113.76c0-1.11.36-2.05,1.08-2.83.72-.78,1.68-1.17,2.9-1.17h25.02c1.1,0,2.04.39,2.82,1.17.77.78,1.16,1.72,1.16,2.83v113.76c0,1.11-.39,2.06-1.16,2.83-.77.78-1.71,1.17-2.82,1.17"/><path class="cls-1" d="M1005.23,200.85v7c0,1.11.39,2.06,1.17,2.83.78.78,1.72,1.16,2.83,1.16h45.14c1.11,0,2.05.39,2.83,1.17.78.78,1.17,1.72,1.17,2.83v22.98c0,1.11-.39,2.06-1.17,2.83-.78.78-1.72,1.17-2.83,1.17h-45.14c-1.11,0-2.06.39-2.83,1.17-.78.78-1.17,1.72-1.17,2.83v6.33c0,1.11.39,2.06,1.17,2.83.78.78,1.72,1.17,2.83,1.17h51.8c1.11,0,2.05.39,2.83,1.17.78.78,1.17,1.72,1.17,2.83v22.98c0,1.11-.39,2.06-1.17,2.83-.78.78-1.72,1.17-2.83,1.17h-84.78c-1.11,0-2.06-.39-2.83-1.17-.78-.77-1.17-1.72-1.17-2.83v-113.92c0-1.11.39-2.05,1.17-2.83.78-.77,1.72-1.17,2.83-1.17h84.78c1.11,0,2.05.39,2.83,1.17.78.78,1.17,1.72,1.17,2.83v22.65c0,1.11-.39,2.06-1.17,2.83-.78.78-1.72,1.17-2.83,1.17h-51.8c-1.11,0-2.06.39-2.83,1.17-.78.78-1.17,1.72-1.17,2.83"/><path class="cls-1" d="M1402.62,18.23c0-5.13,1.82-9.45,5.46-12.96,3.64-3.52,8.06-5.27,13.26-5.27s9.6,1.76,13.25,5.27c3.65,3.52,5.47,7.84,5.47,12.96s-1.83,9.48-5.48,13.01c-3.65,3.53-8.07,5.3-13.23,5.3s-9.62-1.77-13.26-5.3c-3.64-3.53-5.46-7.87-5.46-13.01M1405.84,18.23c0,4.3,1.51,7.91,4.52,10.85,3.02,2.94,6.67,4.41,10.98,4.41s7.94-1.47,10.95-4.41c3.01-2.94,4.52-6.55,4.52-10.85s-1.51-7.88-4.52-10.8c-3.01-2.92-6.66-4.38-10.95-4.38s-7.99,1.46-10.99,4.38c-3.01,2.92-4.51,6.52-4.51,10.8M1417.54,20.09v8.23h-3.98V7.57h7.41c2.65,0,4.74.56,6.27,1.69,1.53,1.12,2.29,2.71,2.29,4.76,0,.91-.24,1.71-.73,2.4-.48.69-1.18,1.27-2.09,1.75.97.5,1.67,1.21,2.09,2.11.43.9.65,1.97.65,3.18v1.37c0,.67.03,1.26.09,1.79.06.53.18.97.36,1.31v.39h-4.09c-.16-.34-.25-.84-.29-1.5s-.05-1.33-.05-2.01v-1.32c0-1.16-.3-2.01-.88-2.56-.59-.55-1.55-.83-2.89-.83h-4.16ZM1417.54,16.82h3.37c1.3,0,2.4-.24,3.31-.73.91-.49,1.36-1.19,1.36-2.1,0-1.17-.34-1.99-1.03-2.47-.68-.47-1.88-.71-3.58-.71h-3.43v6Z"/></g></svg>