<?xml version="1.0" encoding="UTF-8"?>
<svg id="Camada_1" xmlns="http://www.w3.org/2000/svg" version="1.1" viewBox="0 0 125.5 45.8">
  <!-- Generator: Adobe Illustrator 30.1.0, SVG Export Plug-In . SVG Version: 2.1.1 Build 136)  -->
  <defs>
    <style>
      .st0 {
        fill: #fff;
      }

      .st1 {
        fill: #ff8300;
      }

      .st2 {
        fill: #54565a;
      }
    </style>
  </defs>
  <rect class="st2" x="9.4467" y="-.0006" width="116.0496" height="45.8012"/>
  <rect class="st1" x=".0037" y="-.0006" width="9.443" height="45.8012"/>
  <path class="st0" d="M85.7975,28.7378l.775-4.295c.131-.716.496-1.324,1.088-1.832.596-.511,1.248-.763,1.961-.763h11.0371l.053-.325c.065-.347-.004-.647-.209-.908-.207-.26-.493-.39-.862-.39h-12.3181l.812-4.54h15.5671c.734,0,1.308.254,1.719.762.412.508.552,1.119.423,1.834l-1.873,10.457h-4.55l.421-2.349h-6.863c-1.058,0-2.072.33-2.42,2.349h-4.761Z"/>
  <path class="st0" d="M68.7456,15.5521l4.741.043c.009,0-.291,1.478-.36,1.834.782-1.035,1.623-1.731,2.905-1.815l8.246.071c.739.007,1.312.254,1.722.763.409.506.553,1.119.42,1.833l-1.873,10.4581h-4.545l1.289-7.215c.063-.347-.007-.65-.211-.91-.205-.258-.492-.388-.859-.388h-5.221c-1.689,0-2.849,1.244-3.168,3.089l-.94,5.424h-4.509l2.363-13.1871Z"/>
  <path class="st0" d="M58.8297,31.0088c.364,0,.694-.131.987-.39.291-.26.469-.564.535-.914l.209-.967h-11.021c-.735,0-1.309-.254-1.718-.765-.412-.505-.553-1.118-.424-1.832l1.436-7.86c.131-.715.492-1.326,1.089-1.834.593-.508,1.245-.762,1.962-.762h15.5701l-3.16,17.5921c-.111.543-.384,1.002-.828,1.381-.445.377-.935.565-1.478.565h-16.2181l.745-4.214h12.3141ZM61.3677,24.1968l.728-3.972h-7.788c-.366,0-.695.13-.988.39-.29.261-.471.561-.535.908l-.266,1.375c-.066.346.003.65.209.907.208.261.494.392.862.392h7.778Z"/>
  <polygon class="st0" points="41.0585 28.7378 42.2905 21.8328 46.8315 21.8328 45.6005 28.7378 41.0585 28.7378"/>
  <path class="st0" d="M39.6103,28.7378h-4.65c.195-1.367.367-2.315-1.847-2.354h-8.787c-.713,0-1.276-.254-1.686-.765-.411-.508-.551-1.116-.423-1.832l1.103-5.506c.132-.715.492-1.326,1.086-1.834.596-.508,1.251-.762,1.963-.762h15.5701l-.81,4.54h-12.2521c-1.24,0-1.786.98-1.862,1.617h11.13c.713,0,1.278.25,1.687.76.412.509.55,1.119.421,1.832-.179,1.071-.403,2.98-.643,4.304"/>
  <path class="st0" d="M47.928,15.7081h-1.955c-.0974,0-.1937.0058-.2891.0154l.0016-.015h-2.3394l-.7666,4.519h1.1339c.0061,0,.012-.0013.0181-.0014h3.3875l.809-4.518Z"/>
  <g>
    <path class="st0" d="M110.6749,17.694c.091-.1046.137-.2408.137-.4044,0-.0963-.0165-.1845-.0492-.2624-.0327-.0782-.0794-.1452-.1387-.199-.059-.0538-.1305-.0955-.2125-.1239-.0813-.0282-.1712-.0424-.2672-.0424h-.8567v2.2201h.2785v-.9648h.4847l.4881.9522.0065.0126h.3242l-.5196-.9933c.1312-.0322.2404-.0976.3247-.1946ZM110.5334,17.2926c0,.1264-.0376.221-.1119.2812-.0759.0614-.1763.0925-.2983.0925h-.5569v-.7504h.5569c.122,0,.2223.0316.2982.0939.0744.0611.1121.1562.1121.2828Z"/>
    <path class="st0" d="M109.9501,15.6848c-1.1509,0-2.0872.9363-2.0872,2.0872s.9363,2.0872,2.0872,2.0872,2.0873-.9363,2.0873-2.0872-.9363-2.0872-2.0873-2.0872ZM109.9501,19.5805c-.9972,0-1.8086-.8113-1.8086-1.8086s.8113-1.8086,1.8086-1.8086,1.8087.8113,1.8087,1.8086-.8113,1.8086-1.8087,1.8086Z"/>
  </g>
</svg>