<svg width="837" height="200" viewBox="0 0 837 200" fill="none" xmlns="http://www.w3.org/2000/svg">
<path d="M42.2761 2.16553V92.6895C42.2761 107.738 42.5285 119.718 43.0281 128.626C43.5271 137.528 44.2731 143.386 45.2663 146.174L45.2683 146.176C49.0157 156.596 59.4575 161.742 76.5299 161.742C93.0679 161.742 103.385 156.966 107.42 147.396L107.792 146.456L107.794 146.452C108.758 143.554 109.474 137.628 109.952 128.684C110.43 119.732 110.67 107.738 110.67 92.6895V2.16553H152.792V99.4455C152.792 119.212 152.622 132.384 152.228 138.966C151.106 159.288 144.24 174.5 131.648 184.634C119.054 194.774 100.708 199.85 76.5867 199.85C52.4651 199.85 34.0893 194.774 21.4519 184.634C8.81867 174.5 1.89528 159.288 0.715477 138.966C0.321877 132.384 0.153076 119.212 0.153076 99.4455V2.16553H42.2761Z" fill="white" stroke="white" stroke-width="0.306276"/>
<path d="M289.53 64.4917C289.53 52.1537 286.322 44.7837 279.852 42.2697C275.968 40.6517 265.108 39.8137 247.326 39.8137H220.486V89.1157H247.326C265.502 89.1157 276.25 88.4457 279.57 87.1057C286.21 84.3137 289.53 76.7757 289.53 64.4357M331.958 63.9337C331.958 90.3997 323.462 108.212 306.412 117.368C294.594 123.79 275.068 126.972 247.89 126.972H220.486V197.77H178V2.01367H247.89C275.236 2.01367 294.594 4.91769 305.96 10.7797C323.292 19.8237 331.958 37.5797 331.958 63.9337Z" fill="white"/>
<mask id="mask0_18059_42" style="mask-type:luminance" maskUnits="userSpaceOnUse" x="178" y="2" width="154" height="196">
<path d="M289.53 64.4917C289.53 52.1537 286.322 44.7837 279.852 42.2697C275.968 40.6517 265.108 39.8137 247.326 39.8137H220.486V89.1157H247.326C265.502 89.1157 276.25 88.4457 279.57 87.1057C286.21 84.3137 289.53 76.7757 289.53 64.4357M331.958 63.9337C331.958 90.3997 323.462 108.212 306.412 117.368C294.594 123.79 275.068 126.972 247.89 126.972H220.486V197.77H178V2.01367H247.89C275.236 2.01367 294.594 4.91769 305.96 10.7797C323.292 19.8237 331.958 37.5797 331.958 63.9337Z" fill="white"/>
</mask>
<g mask="url(#mask0_18059_42)">
<path d="M279.852 42.2695L279.734 42.5535L279.74 42.5555L279.852 42.2695ZM220.486 39.8135V39.5075H220.178V39.8135H220.486ZM220.486 89.1155H220.178V89.4215H220.486V89.1155ZM279.57 87.1055L279.684 87.3895L279.688 87.3875L279.57 87.1055ZM306.412 117.368L306.266 117.098L306.264 117.1L306.412 117.368ZM220.486 126.971V126.666H220.178V126.971H220.486ZM220.486 197.77V198.076H220.792V197.77H220.486ZM178 197.77H177.694V198.076H178V197.77ZM178 2.01352V1.70752H177.694V2.01352H178ZM289.53 64.4915H289.836C289.836 52.1335 286.626 44.5715 279.962 41.9855L279.852 42.2695L279.74 42.5555C286.018 44.9935 289.224 52.1735 289.224 64.4915H289.53ZM279.852 42.2695L279.97 41.9875C277.976 41.1555 274.244 40.5415 268.824 40.1295C263.39 39.7155 256.22 39.5075 247.326 39.5075V39.8135V40.1195C256.214 40.1195 263.366 40.3295 268.778 40.7395C274.204 41.1515 277.844 41.7635 279.734 42.5535L279.852 42.2695ZM247.326 39.8135V39.5075H220.486V39.8135V40.1195H247.326V39.8135ZM220.486 39.8135H220.178V89.1155H220.486H220.792V39.8135H220.486ZM220.486 89.1155V89.4215H247.326V89.1155V88.8095H220.486V89.1155ZM247.326 89.1155V89.4215C256.416 89.4215 263.654 89.2535 269.038 88.9195C271.73 88.7515 273.96 88.5415 275.73 88.2875C277.494 88.0355 278.818 87.7395 279.684 87.3895L279.57 87.1055L279.456 86.8215C278.66 87.1415 277.396 87.4315 275.644 87.6815C273.896 87.9315 271.682 88.1395 269 88.3075C263.636 88.6415 256.412 88.8095 247.326 88.8095V89.1155ZM279.57 87.1055L279.688 87.3875C286.51 84.5195 289.836 76.8035 289.836 64.4355H289.53H289.224C289.224 76.7475 285.91 84.1075 279.452 86.8235L279.57 87.1055ZM331.958 63.9335H331.652C331.652 90.3355 323.182 108.014 306.266 117.098L306.412 117.368L306.556 117.638C323.742 108.408 332.264 90.4655 332.264 63.9335H331.958ZM306.412 117.368L306.264 117.1C294.52 123.482 275.06 126.666 247.89 126.666V126.971V127.278C275.076 127.278 294.666 124.098 306.556 117.638L306.412 117.368ZM247.89 126.971V126.666H220.486V126.971V127.278H247.89V126.971ZM220.486 126.971H220.178V197.77H220.486H220.792V126.971H220.486ZM220.486 197.77V197.464H178V197.77V198.076H220.486V197.77ZM178 197.77H178.306V2.01352H178H177.694V197.77H178ZM178 2.01352V2.31952H247.89V2.01352V1.70752H178V2.01352ZM247.89 2.01352V2.31952C275.232 2.31952 294.524 5.22551 305.82 11.0515L305.96 10.7795L306.102 10.5075C294.664 4.60754 275.242 1.70752 247.89 1.70752V2.01352ZM305.96 10.7795L305.82 11.0515C323.014 20.0255 331.652 37.6475 331.652 63.9335H331.958H332.264C332.264 37.5115 323.57 19.6235 306.102 10.5075L305.96 10.7795Z" fill="white"/>
</g>
<path d="M498.136 2.16553V39.9955H440.512V197.618H398.334V39.9955H340.824V2.16553H498.136Z" fill="white" stroke="white" stroke-width="0.306276"/>
<path d="M656.962 2.16553V39.9955H561.244V78.8275H654.148V116.656H561.244V159.79H656.962V197.618H519.122V2.16553H656.962Z" fill="white" stroke="white" stroke-width="0.306276"/>
<path d="M757.76 0.15332C788.244 0.15332 809.802 6.63132 822.532 19.4293V19.4273C831.752 28.7433 836.356 42.2153 836.384 59.8713H793.92C793.724 52.1613 791.354 46.7393 786.886 43.5413L786.882 43.5373L786.374 43.2093C781.004 39.8813 771.624 38.2073 758.266 38.2073C741.598 38.2073 730.664 42.2293 725.612 50.3393C723.092 54.3853 721.202 60.5513 719.942 68.8213C718.682 77.0953 718.048 87.4893 718.048 100.001C718.048 112.513 718.666 122.907 719.92 131.181C721.174 139.451 723.062 145.617 725.612 149.663C730.664 157.773 741.598 161.795 758.266 161.795C765.194 161.795 771.042 161.349 775.808 160.459C780.574 159.571 784.268 158.241 786.882 156.465L786.884 156.463C791.354 153.319 793.668 147.841 793.918 140.189H836.384C836.346 156.883 831.816 170.031 822.854 179.651L821.968 180.575C809.236 193.429 787.96 199.849 758.042 199.849C732.508 199.849 713.358 195.271 700.622 186.141C690.138 178.595 683.066 167.075 679.416 151.617L679.072 150.109C676.994 140.019 675.98 123.227 675.98 99.7213C675.98 76.2173 676.994 59.5353 679.072 49.6153V49.6133C682.386 33.3933 689.462 21.4833 700.338 13.8633L700.34 13.8613C713.076 4.7313 732.228 0.15332 757.76 0.15332Z" fill="white" stroke="white" stroke-width="0.306276"/>
</svg>
